<?xml version="1.0" standalone="no"?>
<!DOCTYPE svg PUBLIC "-//W3C//DTD SVG 20010904//EN"
 "http://www.w3.org/TR/2001/REC-SVG-20010904/DTD/svg10.dtd">
<svg version="1.0" xmlns="http://www.w3.org/2000/svg"
 width="2000.000000pt" height="2000.000000pt" viewBox="0 0 2000.000000 2000.000000"
 preserveAspectRatio="xMidYMid meet">
<metadata>
Created by potrace 1.14, written by Peter Selinger 2001-2017
</metadata>
<g transform="translate(0.000000,2000.000000) scale(0.100000,-0.100000)"
fill="#000000" stroke="none">
<path d="M0 10000 l0 -10000 10000 0 10000 0 0 10000 0 10000 -10000 0 -10000
0 0 -10000z m12773 6612 c478 -102 850 -362 1098 -770 102 -167 169 -348 216
-587 21 -103 22 -357 22 -6300 l1 -3250 326 -163 c371 -186 400 -206 462 -331
l37 -75 3 -695 c2 -459 -1 -712 -8 -745 -26 -125 -116 -242 -227 -294 l-58
-27 -4668 -3 -4667 -2 -63 21 c-125 41 -214 121 -271 239 l-31 65 -3 685 c-4
743 -3 751 51 853 53 102 100 133 454 311 l323 161 0 4661 c0 3192 3 4695 11
4765 14 142 34 234 79 370 200 604 745 1043 1400 1128 36 5 1267 8 2735 7
l2670 -1 108 -23z"/>
<path d="M7300 15795 c-336 -68 -609 -328 -676 -644 -12 -56 -14 -783 -14
-4892 0 -3191 -3 -4845 -10 -4880 -6 -30 -24 -82 -41 -116 -54 -111 -82 -131
-450 -318 l-334 -170 -3 -287 -2 -288 4170 0 4170 0 0 288 0 287 -302 150
c-166 83 -327 167 -358 188 -64 41 -117 111 -153 197 l-22 55 -5 4890 c-5
4622 -6 4893 -23 4950 -9 33 -40 106 -67 162 -110 223 -325 385 -570 429 -110
20 -5213 19 -5310 -1z m4812 -876 c178 -37 334 -185 380 -358 15 -60 17 -150
17 -998 1 -644 -2 -948 -10 -985 -37 -178 -185 -334 -358 -380 -61 -16 -216
-17 -2193 -17 -1516 -1 -2142 2 -2180 10 -178 37 -334 185 -380 358 -15 60
-17 150 -17 998 -1 644 2 948 10 985 37 178 185 334 358 380 61 16 216 17
2193 17 1516 1 2142 -2 2180 -10z m-1865 -3555 c54 -26 86 -76 91 -142 2 -32
-42 -515 -97 -1074 -56 -560 -101 -1022 -101 -1028 0 -7 299 -10 918 -10 l919
0 43 -23 c72 -38 109 -135 81 -211 -14 -34 -2228 -3435 -2259 -3468 -33 -36
-83 -51 -144 -46 -73 7 -131 58 -147 129 -5 22 28 390 95 1074 57 572 103
1046 104 1053 0 9 -190 12 -917 12 -910 0 -917 0 -960 21 -57 28 -93 87 -93
155 0 39 7 62 33 105 81 132 2211 3396 2230 3418 46 50 137 66 204 35z"/>
<path d="M7970 13555 l0 -925 1970 0 1970 0 0 925 0 925 -1970 0 -1970 0 0
-925z"/>
<path d="M9097 9242 l-818 -1257 858 -5 c944 -6 891 -2 942 -66 47 -60 48 -47
-33 -867 -42 -422 -76 -777 -76 -789 0 -11 369 546 820 1238 l819 1259 -857 5
c-791 5 -859 6 -889 22 -44 25 -84 80 -90 125 -2 21 30 384 72 807 42 423 74
772 73 776 -2 5 -371 -557 -821 -1248z"/>
</g>
</svg>
