<?xml version="1.0" standalone="no"?>
<!DOCTYPE svg PUBLIC "-//W3C//DTD SVG 20010904//EN"
 "http://www.w3.org/TR/2001/REC-SVG-20010904/DTD/svg10.dtd">
<svg version="1.0" xmlns="http://www.w3.org/2000/svg"
 width="800.000000pt" height="800.000000pt" viewBox="0 0 800.000000 800.000000"
 preserveAspectRatio="xMidYMid meet">
<metadata>
Created by potrace 1.14, written by Peter Selinger 2001-2017
</metadata>
<g transform="translate(0.000000,800.000000) scale(0.100000,-0.100000)"
fill="#000000" stroke="none">
<path d="M0 4000 l0 -4000 4000 0 4000 0 0 4000 0 4000 -4000 0 -4000 0 0
-4000z m5304 2917 c203 -61 367 -198 456 -382 82 -169 74 59 77 -2320 l3
-2121 141 -69 c152 -76 199 -115 219 -182 8 -26 10 -137 8 -343 l-3 -305 -27
-47 c-19 -32 -41 -52 -71 -67 l-44 -21 -2070 2 -2071 3 -43 30 c-24 17 -52 49
-65 75 -23 44 -23 52 -24 348 0 332 2 347 60 407 16 17 92 62 169 100 l141 69
3 2121 c3 2386 -6 2145 82 2323 95 191 289 339 509 387 49 11 290 13 1276 12
1132 -2 1219 -3 1274 -20z"/>
<path d="M2793 6555 c-102 -31 -185 -104 -232 -204 l-26 -56 -5 -2185 c-5
-2024 -6 -2187 -22 -2216 -24 -44 -34 -51 -197 -134 l-146 -75 -3 -127 -3
-128 1841 0 1841 0 -3 128 -3 127 -146 75 c-169 87 -176 92 -200 145 -18 38
-19 133 -19 2196 0 2123 0 2158 -20 2220 -35 112 -132 209 -240 239 -22 6
-473 10 -1205 9 -938 0 -1178 -3 -1212 -14z m2293 -434 c22 -10 50 -31 62 -46
22 -28 22 -30 22 -510 0 -480 0 -482 -22 -510 -12 -15 -40 -36 -62 -46 -39
-18 -89 -19 -1020 -19 -730 0 -989 3 -1019 12 -21 6 -52 25 -68 41 l-29 29 0
493 0 493 29 30 c16 15 44 33 63 39 22 8 348 11 1018 12 938 1 987 0 1026 -18z
m-901 -1491 c18 -20 18 -32 -24 -468 -23 -246 -45 -462 -48 -479 l-5 -33 414
0 c400 0 416 -1 433 -20 9 -10 18 -30 18 -42 -1 -26 -950 -1509 -990 -1545
-30 -29 -45 -29 -79 0 l-26 23 41 434 c23 239 44 454 47 478 l6 42 -402 0
c-450 0 -459 1 -460 68 0 14 88 161 214 355 659 1024 769 1193 779 1199 22 14
64 8 82 -12z"/>
<path d="M3230 5545 l0 -365 823 2 822 3 3 363 2 362 -825 0 -825 0 0 -365z"/>
<path d="M4006 4266 c-20 -31 -101 -156 -180 -279 -79 -122 -232 -359 -340
-527 l-196 -305 387 -3 c443 -3 423 1 423 -86 -1 -28 -15 -198 -33 -378 -18
-181 -30 -328 -27 -328 3 0 172 260 377 578 l371 577 -381 5 c-210 3 -390 9
-400 14 -9 4 -20 20 -23 33 -4 14 9 188 28 387 20 198 34 362 33 364 -2 2 -19
-22 -39 -52z"/>
</g>
</svg>
